<mxfile host="app.diagrams.net" agent="Mozilla/5.0 (Windows NT 10.0; Win64; x64; rv:134.0) Gecko/20100101 Firefox/134.0" version="26.0.8">
  <diagram name="Page-1" id="ZXpQ7pKdQ11TYr32vxgk">
    <mxGraphModel dx="808" dy="429" grid="1" gridSize="10" guides="1" tooltips="1" connect="1" arrows="1" fold="1" page="1" pageScale="1" pageWidth="850" pageHeight="1100" math="0" shadow="0">
      <root>
        <mxCell id="0" />
        <mxCell id="1" parent="0" />
        <mxCell id="994TZOc0e8ueIgH7nZX5-9" style="edgeStyle=orthogonalEdgeStyle;rounded=0;orthogonalLoop=1;jettySize=auto;html=1;exitX=0.5;exitY=1;exitDx=0;exitDy=0;entryX=0.5;entryY=0;entryDx=0;entryDy=0;" edge="1" parent="1" source="994TZOc0e8ueIgH7nZX5-1" target="994TZOc0e8ueIgH7nZX5-2">
          <mxGeometry relative="1" as="geometry" />
        </mxCell>
        <mxCell id="994TZOc0e8ueIgH7nZX5-1" value="Начало" style="rounded=1;whiteSpace=wrap;html=1;arcSize=50;" vertex="1" parent="1">
          <mxGeometry x="365" y="375" width="120" height="30" as="geometry" />
        </mxCell>
        <mxCell id="994TZOc0e8ueIgH7nZX5-10" style="edgeStyle=orthogonalEdgeStyle;rounded=0;orthogonalLoop=1;jettySize=auto;html=1;exitX=0.5;exitY=1;exitDx=0;exitDy=0;entryX=0.5;entryY=0;entryDx=0;entryDy=0;" edge="1" parent="1" source="994TZOc0e8ueIgH7nZX5-2" target="994TZOc0e8ueIgH7nZX5-3">
          <mxGeometry relative="1" as="geometry" />
        </mxCell>
        <mxCell id="994TZOc0e8ueIgH7nZX5-2" value="Ввод: х и у" style="shape=parallelogram;perimeter=parallelogramPerimeter;whiteSpace=wrap;html=1;fixedSize=1;size=20;" vertex="1" parent="1">
          <mxGeometry x="365" y="445" width="120" height="20" as="geometry" />
        </mxCell>
        <mxCell id="994TZOc0e8ueIgH7nZX5-7" style="edgeStyle=orthogonalEdgeStyle;rounded=0;orthogonalLoop=1;jettySize=auto;html=1;exitX=0;exitY=0.5;exitDx=0;exitDy=0;entryX=0.5;entryY=0;entryDx=0;entryDy=0;" edge="1" parent="1" source="994TZOc0e8ueIgH7nZX5-3" target="994TZOc0e8ueIgH7nZX5-4">
          <mxGeometry relative="1" as="geometry" />
        </mxCell>
        <mxCell id="994TZOc0e8ueIgH7nZX5-8" style="edgeStyle=orthogonalEdgeStyle;rounded=0;orthogonalLoop=1;jettySize=auto;html=1;exitX=1;exitY=0.5;exitDx=0;exitDy=0;entryX=0.5;entryY=0;entryDx=0;entryDy=0;" edge="1" parent="1" source="994TZOc0e8ueIgH7nZX5-3" target="994TZOc0e8ueIgH7nZX5-5">
          <mxGeometry relative="1" as="geometry" />
        </mxCell>
        <mxCell id="994TZOc0e8ueIgH7nZX5-3" value="&lt;div&gt;-1.0 ≤ x ≤ 1.0 и -1.0 ≤ y ≤ 0.0&lt;/div&gt;или x&lt;sup&gt;2&lt;/sup&gt; + y&lt;sup&gt;2&lt;/sup&gt; ≤ 1" style="rhombus;whiteSpace=wrap;html=1;" vertex="1" parent="1">
          <mxGeometry x="310" y="495" width="230" height="90" as="geometry" />
        </mxCell>
        <mxCell id="994TZOc0e8ueIgH7nZX5-12" style="edgeStyle=orthogonalEdgeStyle;rounded=0;orthogonalLoop=1;jettySize=auto;html=1;exitX=0.5;exitY=1;exitDx=0;exitDy=0;" edge="1" parent="1" source="994TZOc0e8ueIgH7nZX5-4" target="994TZOc0e8ueIgH7nZX5-11">
          <mxGeometry relative="1" as="geometry" />
        </mxCell>
        <mxCell id="994TZOc0e8ueIgH7nZX5-4" value="Вывод: True" style="shape=parallelogram;perimeter=parallelogramPerimeter;whiteSpace=wrap;html=1;fixedSize=1;size=20;" vertex="1" parent="1">
          <mxGeometry x="205" y="605" width="120" height="20" as="geometry" />
        </mxCell>
        <mxCell id="994TZOc0e8ueIgH7nZX5-13" style="edgeStyle=orthogonalEdgeStyle;rounded=0;orthogonalLoop=1;jettySize=auto;html=1;exitX=0.5;exitY=1;exitDx=0;exitDy=0;" edge="1" parent="1" source="994TZOc0e8ueIgH7nZX5-5">
          <mxGeometry relative="1" as="geometry">
            <mxPoint x="425" y="695" as="targetPoint" />
          </mxGeometry>
        </mxCell>
        <mxCell id="994TZOc0e8ueIgH7nZX5-5" value="Вывод: False" style="shape=parallelogram;perimeter=parallelogramPerimeter;whiteSpace=wrap;html=1;fixedSize=1;size=20;" vertex="1" parent="1">
          <mxGeometry x="525" y="605" width="120" height="20" as="geometry" />
        </mxCell>
        <mxCell id="994TZOc0e8ueIgH7nZX5-11" value="Конец" style="rounded=1;whiteSpace=wrap;html=1;arcSize=50;" vertex="1" parent="1">
          <mxGeometry x="365" y="695" width="120" height="30" as="geometry" />
        </mxCell>
      </root>
    </mxGraphModel>
  </diagram>
</mxfile>
